<?xml version="1.0" encoding="utf-8"?>
<!-- Generator: Adobe Illustrator 23.0.4, SVG Export Plug-In . SVG Version: 6.00 Build 0)  -->
<svg version="1.1" id="レイヤー_1" xmlns="http://www.w3.org/2000/svg" xmlns:xlink="http://www.w3.org/1999/xlink" x="0px"
	 y="0px" viewBox="0 0 1158 278" style="enable-background:new 0 0 1158 278;" xml:space="preserve">
<style type="text/css">
	.st0{fill:#FFFFFF;}
</style>
<g>
	<path class="st0" d="M139,278C62.4,278,0,215.6,0,139S62.4,0,139,0s139,62.4,139,139S215.6,278,139,278z M139,2
		C63.5,2,2,63.5,2,139s61.5,137,137,137s137-61.5,137-137S214.5,2,139,2z M139,222c-45.8,0-83-37.2-83-83s37.2-83,83-83
		s83,37.2,83,83S184.8,222,139,222z M139,58c-44.7,0-81,36.3-81,81s36.3,81,81,81s81-36.3,81-81S183.7,58,139,58z"/>
	<path class="st0" d="M608,168H330v-58h278V168z M332,166h274v-54H332V166z"/>
	<path class="st0" d="M1158,278h-58V0h58V278z M1102,276h54V2h-54V276z"/>
	<path class="st0" d="M705.1,273.9l-41-41L892.9,4.1l41,41L705.1,273.9z M666.9,232.9l38.2,38.2l226-226L892.9,6.9L666.9,232.9z"/>
</g>
</svg>
