<?xml version="1.0" encoding="utf-8"?>
<!-- Generator: Adobe Illustrator 21.1.0, SVG Export Plug-In . SVG Version: 6.00 Build 0)  -->
<svg version="1.1" id="mv_sp" xmlns="http://www.w3.org/2000/svg" xmlns:xlink="http://www.w3.org/1999/xlink" x="0px" y="0px"
	 viewBox="0 0 610 610" style="enable-background:new 0 0 610 610;" xml:space="preserve">
<style type="text/css">
	.st0{stroke:#FFFFFF;}
</style>
<g>
	<path class="st0" d="M140.5,1.5c37.1,0,72,14.5,98.3,40.7s40.7,61.2,40.7,98.3s-14.5,72-40.7,98.3c-26.3,26.2-61.2,40.7-98.3,40.7
		s-72-14.5-98.3-40.7C16,212.5,1.5,177.6,1.5,140.5s14.5-72,40.7-98.3S103.4,1.5,140.5,1.5 M140.5,0.5c-77.3,0-140,62.7-140,140
		s62.7,140,140,140s140-62.7,140-140S217.8,0.5,140.5,0.5L140.5,0.5z"/>
</g>
<g>
	<path class="st0" d="M140.5,57.6c45.5,0,82.4,37,82.4,82.4s-37,82.4-82.4,82.4s-82.4-37-82.4-82.4S95,57.6,140.5,57.6 M140.5,56.6
		C94.4,56.6,57.1,94,57.1,140s37.4,83.4,83.4,83.4s83.4-37.4,83.4-83.4S186.6,56.6,140.5,56.6L140.5,56.6z"/>
</g>
<g>
	<path class="st0" d="M609,111v58H331v-58H609 M610,110H330v60h280V110L610,110z"/>
</g>
<g>
	<path class="st0" d="M514,331v278h-58V331H514 M515,330h-60v280h60V330L515,330z"/>
</g>
<g>
	<path class="st0" d="M249.7,335.1l40.6,40.6L61.1,604.9l-40.6-40.6L249.7,335.1 M249.7,333.7L19.1,564.3l42,42l230.6-230.6
		L249.7,333.7L249.7,333.7z"/>
</g>
</svg>
